<?xml version="1.0" standalone="no"?>
<!DOCTYPE svg PUBLIC "-//W3C//DTD SVG 20010904//EN"
 "http://www.w3.org/TR/2001/REC-SVG-20010904/DTD/svg10.dtd">
<svg version="1.0" xmlns="http://www.w3.org/2000/svg"
 width="16.000000pt" height="16.000000pt" viewBox="0 0 16.000000 16.000000"
 preserveAspectRatio="xMidYMid meet">
<metadata>
Created by potrace 1.11, written by Peter Selinger 2001-2013
</metadata>
<g transform="translate(0.000000,16.000000) scale(0.007373,-0.007373)"
fill="#000000" stroke="none">
<path d="M745 2152 c-39 -24 -54 -43 -65 -83 -20 -69 28 -148 100 -164 45 -10
118 28 136 71 28 67 7 138 -51 174 -40 25 -81 25 -120 2z"/>
<path d="M1350 2124 c-43 -28 -960 -947 -977 -978 -50 -95 22 -197 129 -183
40 5 68 32 534 499 541 541 526 523 488 603 -32 67 -118 96 -174 59z"/>
<path d="M1755 1889 c-21 -6 -146 -125 -417 -396 -422 -424 -417 -417 -384
-496 27 -66 103 -94 170 -62 18 9 201 185 408 393 420 421 411 408 369 496
-12 24 -30 47 -39 51 -38 16 -79 21 -107 14z"/>
<path d="M232 1638 c-112 -112 -210 -216 -219 -232 -40 -76 23 -176 110 -176
59 0 86 21 298 236 194 197 209 221 187 290 -17 51 -66 84 -126 84 l-46 0
-204 -202z"/>
<path d="M1954 1481 c-21 -16 -319 -310 -661 -652 -416 -417 -627 -636 -636
-659 -43 -105 71 -209 171 -156 15 8 318 306 675 663 679 681 655 653 647 728
-5 50 -70 105 -126 105 -19 0 -47 -12 -70 -29z"/>
<path d="M1965 861 c-49 -31 -223 -215 -230 -244 -20 -78 40 -157 118 -157 23
0 54 7 67 16 38 25 168 154 201 198 48 65 36 139 -30 183 -41 28 -86 29 -126
4z"/>
<path d="M74 850 c-81 -52 -71 -184 16 -220 48 -20 110 -7 142 29 53 59 49
130 -8 180 -42 38 -102 42 -150 11z"/>
<path d="M695 829 c-40 -11 -421 -392 -430 -432 -30 -121 99 -204 201 -128 21
16 116 107 211 203 194 197 202 211 164 292 -12 24 -30 47 -39 51 -38 16 -79
21 -107 14z"/>
<path d="M1344 250 c-39 -16 -74 -68 -74 -112 0 -54 26 -94 78 -119 54 -27
100 -19 141 22 42 41 49 87 22 142 -31 63 -104 93 -167 67z"/>
</g>
</svg>
